<?xml version="1.0" standalone="no"?><!DOCTYPE svg PUBLIC "-//W3C//DTD SVG 1.1//EN" "http://www.w3.org/Graphics/SVG/1.1/DTD/svg11.dtd"><svg t="1589263110566" class="icon" viewBox="0 0 1024 1024" version="1.1" xmlns="http://www.w3.org/2000/svg" p-id="12341" width="48" height="48" xmlns:xlink="http://www.w3.org/1999/xlink"><defs><style type="text/css"></style></defs><path d="M133.7 931.4c0-208.6 169.1-377.6 377.6-377.6s377.6 169.1 377.6 377.6h-75.5c0-166.8-135.3-302.1-302.1-302.1S209.2 764.6 209.2 931.4h-75.5z m377.6-377.7c-125.1 0-226.6-101.5-226.6-226.6s101.4-226.6 226.6-226.6S737.9 202 737.9 327.1c0 125.2-101.4 226.6-226.6 226.6z m0-75.5c83.4 0 151.1-67.6 151.1-151.1S594.8 176 511.3 176c-83.4 0-151.1 67.6-151.1 151.1s67.7 151.1 151.1 151.1z" p-id="12342" fill="#ffffff"></path></svg>