<?xml version="1.0" standalone="no"?><!DOCTYPE svg PUBLIC "-//W3C//DTD SVG 1.1//EN" "http://www.w3.org/Graphics/SVG/1.1/DTD/svg11.dtd"><svg t="1589166228965" class="icon" viewBox="0 0 1024 1024" version="1.1" xmlns="http://www.w3.org/2000/svg" p-id="1781" xmlns:xlink="http://www.w3.org/1999/xlink" width="32" height="32"><defs><style type="text/css"></style></defs><path d="M298.666667 305.493333c-22.186667 0-44.373333 13.653333-44.373334 35.84 0 20.48 22.186667 35.84 44.373334 35.84s35.84-13.653333 35.84-35.84-15.36-35.84-35.84-35.84zM501.76 377.173333c22.186667 0 35.84-13.653333 35.84-35.84s-13.653333-35.84-35.84-35.84-42.666667 13.653333-42.666667 35.84c-1.706667 20.48 20.48 35.84 42.666667 35.84zM595.626667 512c-13.653333 0-29.013333 13.653333-29.013334 29.013333 0 13.653333 15.36 29.013333 29.013334 29.013334 22.186667 0 35.84-13.653333 35.84-29.013334 0-15.36-13.653333-29.013333-35.84-29.013333z" fill="#FAA929" p-id="1782"></path><path d="M827.733333 0h-631.466666C88.746667 0 0 88.746667 0 196.266667v629.76C0 935.253333 88.746667 1024 196.266667 1024h629.76c97.28 0 177.493333-69.973333 194.56-162.133333l3.413333-160.426667V196.266667C1024 88.746667 935.253333 0 827.733333 0zM392.533333 669.013333c-35.84 0-64.853333-6.826667-100.693333-13.653333l-100.693333 49.493333 29.013333-85.333333C145.066667 568.32 102.4 505.173333 102.4 426.666667c0-134.826667 129.706667-242.346667 290.133333-242.346667 143.36 0 267.946667 85.333333 291.84 199.68-8.533333-1.706667-18.773333-1.706667-27.306666-1.706667-138.24 0-245.76 100.693333-245.76 225.28 0 20.48 3.413333 40.96 8.533333 59.733334-8.533333 1.706667-18.773333 1.706667-27.306667 1.706666zM819.2 768l22.186667 71.68-80.213334-42.666667c-29.013333 6.826667-58.026667 13.653333-87.04 13.653334-138.24 0-245.76-92.16-245.76-206.506667 0-114.346667 109.226667-206.506667 245.76-206.506667 129.706667 0 245.76 92.16 245.76 206.506667 1.706667 64.853333-40.96 121.173333-100.693333 163.84z" fill="#FAA929" p-id="1783"></path><path d="M754.346667 512c-13.653333 0-29.013333 13.653333-29.013334 29.013333 0 13.653333 15.36 29.013333 29.013334 29.013334 22.186667 0 35.84-13.653333 35.84-29.013334 1.706667-15.36-13.653333-29.013333-35.84-29.013333z" fill="#FAA929" p-id="1784"></path></svg>