<?xml version="1.0" standalone="no"?><!DOCTYPE svg PUBLIC "-//W3C//DTD SVG 1.1//EN" "http://www.w3.org/Graphics/SVG/1.1/DTD/svg11.dtd"><svg t="1589166214743" class="icon" viewBox="0 0 1024 1024" version="1.1" xmlns="http://www.w3.org/2000/svg" p-id="8467" xmlns:xlink="http://www.w3.org/1999/xlink" width="32" height="32"><defs><style type="text/css"></style></defs><path d="M872.416 872.608h-151.648v-237.6c0-56.672-1.152-129.568-79.008-129.568-79.072 0-91.136 61.664-91.136 125.408v241.792h-151.648V384.032h145.664v66.592h1.952c20.352-38.4 69.856-78.944 143.776-78.944 153.632 0 182.048 101.12 182.048 232.736v268.192zM227.712 317.152a88 88 0 0 1-88.032-88.096 88.064 88.064 0 1 1 88.032 88.096z m76.032 555.456H151.68V384h152.064v488.608zM948.256 0H75.552C33.792 0 0 33.024 0 73.76v876.448c0 40.8 33.792 73.76 75.552 73.76h872.576c41.728 0 75.872-32.992 75.872-73.76V73.76C1024 33.024 989.856 0 948.128 0h0.128z" fill="#FAA929" p-id="8468"></path></svg>